<?xml version="1.0" encoding="utf-8"?>
<!-- Generator: Adobe Illustrator 19.2.1, SVG Export Plug-In . SVG Version: 6.00 Build 0)  -->
<svg version="1.1" id="layer" xmlns="http://www.w3.org/2000/svg" xmlns:xlink="http://www.w3.org/1999/xlink" x="0px" y="0px"
	 viewBox="0 0 652 652" style="enable-background:new 0 0 652 652;" xml:space="preserve">
<style type="text/css">
	.st0{fill:#A4A7B0;}
</style>
<g>
	<path class="st0" d="M164,348.1h75.2c18.5,0,22.1-4.4,22.1-11.6v-4.8c0-7.2-3.6-11.6-22.1-11.6h-22.3c-26.4,0-40.4-7.7-40.4-23.6
		c0-15.9,14.1-23.6,40.4-23.6h132.4c27.3,0,35.9,13.9,35.9,29.4v28.6c0,15.6-8.6,29.3-35.9,29.3h-46.2v47.9h-14.6v-59.7h52.2
		c28.3,0,29.9-8,29.9-20.7v-21.8c0-12.7-1.6-21-29.8-21H217.3c-18.5,0-26,4.5-26,11.6c0,7.2,7.6,11.6,26,11.6h22.3
		c26.4,0,36.5,7.7,36.5,23.6v4.8c0,15.9-10.1,23.6-36.5,23.6h-90.1v-12v-42.8c0-12.7-3.6-21-31.8-21H93.9
		c-18.3,0-21.9,4.4-21.9,11.5V348v12.1H20.5v-87.3h14.6V348h22.4v-53.4c0-15.8,10-22.2,36.1-22.2h34.6c27.3,0,35.9,13.7,35.9,29.3
		V348.1z"/>
</g>
<rect x="20.5" y="235.1" class="st0" width="14.7" height="24.1"/>
<rect x="401.6" y="235.1" class="st0" width="14.7" height="24.1"/>
<g>
	<path class="st0" d="M453.3,360.1h-51.5v-12v-75.4h14.6v75.4h22.4v-45.8c0-25.7,18.3-29.8,45.4-29.8h36.7v11.9h-35.4
		c-22.4,0-32.2,2-32.2,17.6V360.1z"/>
	<path class="st0" d="M537.6,305.7v21.8c0,12.7,3.6,20.7,31.8,20.7h51v11.9H559c-27.3,0-35.9-13.7-35.9-29.3v-28.6
		c0-15.6,8.6-29.4,35.9-29.4h61.5v12h-51.1C541.2,284.7,537.6,293,537.6,305.7"/>
</g>
<rect x="551.5" y="309" class="st0" width="69" height="11.9"/>
<g>
	<path d="M324.1,407.9h4v-24.4l9.4,24.4h4l9.3-24.4l0.1,24.4h4v-28.2h-6.7l-8.7,23.4l-8.8-23.4h-6.7V407.9z M360.3,407.9h4.2
		l2.9-7.1h13.8l2.9,7.1h4.4l-11.9-28.2h-4.2L360.3,407.9z M379.9,397.4h-11.2l5.6-14L379.9,397.4z M393.8,407.9h4v-23.2l12.8,23.2
		h5.2v-28.2h-4v22.7l-12.5-22.7h-5.5V407.9z M421.1,407.9h4.2l2.9-7.1H442l2.9,7.1h4.4l-11.9-28.2h-4.2L421.1,407.9z M440.7,397.4
		h-11.2l5.6-14L440.7,397.4z M476.3,380.6c-2.4-0.8-4.2-1.4-8.3-1.4c-8.6,0-14.9,5.8-14.9,14.5c0,9,5.9,14.7,14.9,14.7
		c4.4,0,7.1-0.7,8.6-1.3v-14.7h-10v3.3h5.9v8.6c-1,0.2-1.7,0.5-4.5,0.5c-5.9,0-10.6-4.4-10.6-11c0-6.3,4.3-11,10.8-11
		c3.6,0,5.8,0.6,7.8,1.9L476.3,380.6z M485.2,407.9H501v-3.6h-11.8V395h10.7v-3.6h-10.7v-8.2H501v-3.6h-15.8V407.9z M508.7,407.9h4
		v-24.4l9.4,24.4h4l9.3-24.4l0.1,24.4h4v-28.2h-6.7l-8.7,23.4l-8.9-23.4h-6.7V407.9z M548.2,407.9H564v-3.6h-11.8V395H563v-3.6
		h-10.7v-8.2H564v-3.6h-15.8V407.9z M571.6,407.9h4v-23.2l12.8,23.2h5.2v-28.2h-4v22.7l-12.5-22.7h-5.5V407.9z M607.7,407.9h4v-24.6
		h8.8v-3.6h-21.6v3.6h8.8V407.9z M149.4,407.9h15.8v-3.6h-11.8V395h10.7v-3.6h-10.7v-8.2h11.8v-3.6h-15.8V407.9z M196,379.7h-4.2
		l-8.9,24.6l-8.8-24.6h-4.5l10.6,28.2h5.1L196,379.7z M201.3,407.9h15.8v-3.6h-11.8V395H216v-3.6h-10.7v-8.2h11.8v-3.6h-15.8V407.9z
		 M224.7,407.9h4v-23.2l12.8,23.2h5.2v-28.2h-4v22.7l-12.5-22.7h-5.5V407.9z M260.8,407.9h4v-24.6h8.8v-3.6H252v3.6h8.8V407.9z"/>
</g>
</svg>
